<svg xmlns="http://www.w3.org/2000/svg" xmlns:xlink="http://www.w3.org/1999/xlink" viewBox="0 0 777.7 143.09" xmlns:v="https://vecta.io/nano"><path d="M178.55 37.99a33.38 33.38 0 0 1 48.37 7.36l25.29-17.23a63.82 63.82 0 0 0-52.9-28 64.79 64.79 0 0 0-20.76 3.52z" fill="#f9a51a"/><path d="M226.82 82.93a33.37 33.37 0 0 1-61-18.74V9.58c-22.156 13.705-33.794 39.472-29.428 65.155s23.865 46.157 49.305 51.771 51.744-4.754 66.512-26.216z" fill="#5f686a"/><path d="M300.38 37.99a33.32 33.32 0 0 1 53.756 21.635A33.32 33.32 0 0 1 341.29 90.59l13.71 27.7c27.499-17.28 37.695-52.419 23.717-81.735S331.018-6.958 300.28 3.53v34.46z" fill="#f9a51a"/><path d="M318.92 143.09h34.26L330 96.34a32.66 32.66 0 0 1-8.86 1.2 33.33 33.33 0 0 1-33.36-33.35V9.58c-22.862 14.009-34.568 40.785-29.326 67.081s26.32 46.537 52.806 50.709z" fill="#5f686a"/><path d="M61.77 1.92l-7.86 15.81 54.01 108.63h34.26L80.31 1.92H61.77z" fill="#f9a51a"/><g fill="#5f686a"><path d="M34.26 126.36l6.25-12.6h45.85l-12.4-25.09H52.9l10.48-21.06-17.03-34.56-42.02 84.64L0 126.36h34.26zm430.36-91.39h-10.88l-1.61 4.23h-5.64l9.37-24.28h6.55l9.37 24.28H466zm-9.47-4.68h8.06l-4-11.08zM475 31.64a10.65 10.65 0 0 0 7.76 3.23c2.92 0 4.23-1.31 4.23-2.72 0-1.82-2.11-2.52-4.93-3.13-3.93-.9-9.17-1.91-9.17-7.45 0-4 3.52-7.36 9.27-7.36a13.89 13.89 0 0 1 9.57 3.43l-2.92 3.83a10.15 10.15 0 0 0-6.95-2.62c-2.42 0-3.53 1-3.53 2.52 0 1.71 2.11 2.11 4.84 2.72 4 .9 9.17 2.11 9.17 7.55 0 4.44-3.13 7.86-9.78 7.86a14.18 14.18 0 0 1-10.38-3.93zm22 0a10.61 10.61 0 0 0 7.76 3.23c2.92 0 4.23-1.31 4.23-2.72 0-1.82-2.11-2.52-4.94-3.13-3.93-.9-9.17-1.91-9.17-7.45 0-4 3.53-7.36 9.27-7.36a13.91 13.91 0 0 1 9.58 3.43l-2.93 3.83a10.12 10.12 0 0 0-6.95-2.62c-2.42 0-3.52 1-3.52 2.52 0 1.71 2.11 2.11 4.83 2.72 4 .9 9.17 2.11 9.17 7.55 0 4.44-3.12 7.86-9.77 7.86a14.18 14.18 0 0 1-10.38-3.93z"/><use xlink:href="#B"/><path d="M544.43 26.91c0-7.46 5.64-12.6 12.8-12.6a11.29 11.29 0 0 1 10.38 6.05l-4.44 2.22a6.72 6.72 0 0 0-5.84-3.53c-4.23 0-7.46 3.42-7.46 8s3.23 8 7.46 8a6.6 6.6 0 0 0 5.84-3.53l4.44 2.12a11.35 11.35 0 0 1-10.38 6c-7.06-.14-12.8-5.27-12.8-12.73zm26.3-12.29H576V38.9h-5.24zm25.49 20.35h-10.88l-1.61 4.23H578l9.38-24.28h6.55l9.37 24.28h-5.65zm-9.47-4.68h8.06l-4-11.08zm22.25-11h-7v-4.57h19.44v4.57h-7V39h-5.24V19.29zm15.74-4.67H630V38.9h-5.24zm21.36-.33c7.36 0 12.8 5.24 12.8 12.6s-5.34 12.59-12.8 12.59-12.69-5.19-12.69-12.57a12.31 12.31 0 0 1 12.69-12.62zm0 4.64c-4.43 0-7.35 3.42-7.35 8s2.92 8 7.35 8 7.46-3.53 7.46-8-2.82-7.98-7.46-7.98zm21.77 3.85V39.1h-5.24V14.62H668l11.28 15.82V14.62h5.24V38.9h-4.93zm30.73-8.16h9.57c7.56 0 12.9 4.83 12.9 12.19S715.73 39 708.17 39h-9.57zm9.67 20a7.24 7.24 0 0 0 7.56-7.56c0-4.33-2.62-7.56-7.56-7.56h-4.43v15.17c-.1-.1 4.43-.1 4.43-.1zm16.53-20H742v4.43h-12v5.34h11.79v4.43H730v5.65h12v4.43h-17.2zM446.49 51.39h5.24v19.75h10.38v4.54h-15.62zm34.66 20.16h-10.88l-1.61 4.23h-5.75l9.37-24.28h6.55l9.37 24.28h-5.64zm-9.57-4.44h8.06l-4-11.08zm25.99-3.52c0-7.46 5.65-12.6 12.8-12.6a11.27 11.27 0 0 1 10.38 6l-4.43 2.3a6.75 6.75 0 0 0-5.85-3.52c-4.23 0-7.45 3.42-7.45 8s3.22 8 7.45 8a6.62 6.62 0 0 0 5.85-3.53l4.43 2.05a11.34 11.34 0 0 1-10.38 6 12.42 12.42 0 0 1-12.8-12.7zm37.79-12.6c7.36 0 12.8 5.24 12.8 12.6s-5.34 12.59-12.8 12.59-12.69-5.24-12.69-12.59a12.26 12.26 0 0 1 12.69-12.6zm0 4.64c-4.43 0-7.35 3.42-7.35 8s2.92 8 7.35 8 7.46-3.53 7.46-8c0-4.68-2.82-8-7.46-8zm21.77 3.72v16.33h-5.24V51.39h5.34l11.28 15.82V51.39h5.24v24.29h-4.93zm22.57 9.07a10.61 10.61 0 0 0 7.76 3.23c2.92 0 4.23-1.31 4.23-2.72 0-1.82-2.12-2.52-4.94-3.13-3.93-.9-9.17-1.91-9.17-7.45 0-4 3.53-7.36 9.27-7.36a13.87 13.87 0 0 1 9.57 3.43l-2.92 3.87a10.12 10.12 0 0 0-7-2.62c-2.32 0-3.53 1-3.53 2.52 0 1.71 2.12 2.11 4.84 2.92 4 .9 9.17 2.11 9.17 7.56 0 4.43-3.12 7.85-9.77 7.85a14.17 14.17 0 0 1-10.38-3.93zm26-12.49h-7.06v-4.54h19.45v4.54H611v19.75h-5.2V55.93zm24.78 11.18h-3.83v8.77h-5.24V51.6h11.39c5.14 0 8.26 3.22 8.26 7.86 0 4.33-2.72 6.65-5.34 7.15l5.44 9.27h-6zM632 55.83h-5.44v6.65H632a3.34 3.34 0 0 0 3.63-3.43c-.01-1.91-1.52-3.22-3.63-3.22zm13-4.44h5.24V65.9c0 3.43 1.82 5.75 5.65 5.75 3.62 0 5.64-2.32 5.64-5.75V51.39h5.24v14.62c0 6-3.53 10.17-10.88 10.17s-11-4.23-11-10.17V51.39zm25.29 12.2c0-7.46 5.64-12.6 12.79-12.6a11.27 11.27 0 0 1 10.38 6l-4.46 2.3a6.75 6.75 0 0 0-5.85-3.52c-4.23 0-7.45 3.42-7.45 8s3.22 8 7.45 8a6.62 6.62 0 0 0 5.85-3.65l4.46 2.17a11.34 11.34 0 0 1-10.38 6 12.41 12.41 0 0 1-12.79-12.7zm31.94-7.66h-7.06v-4.54h19.35v4.54h-7v19.75h-5.24zM718 51.39h5.24v24.29H718zm21.51-.4c7.36 0 12.8 5.24 12.8 12.6s-5.31 12.59-12.8 12.59-12.7-5.24-12.7-12.59 5.34-12.6 12.7-12.6zm0 4.64c-4.43 0-7.36 3.42-7.36 8s2.93 8 7.36 8 7.46-3.53 7.46-8c-.2-4.68-3.03-8-7.46-8zm21.56 3.72v16.33h-5.24V51.39h5.34l11.29 15.82V51.39h5.24v24.29h-4.94zM446.49 88.17h9.57c7.56 0 12.9 4.84 12.9 12.2s-5.34 12.19-12.9 12.19h-9.57zm9.57 19.75a7.24 7.24 0 0 0 7.56-7.55c0-4.34-2.62-7.56-7.56-7.56h-4.33v15.21h4.33zm16.73-19.75H478v14.51c0 3.43 1.81 5.75 5.64 5.75 3.63 0 5.64-2.32 5.64-5.75V88.17h5.24v14.61c0 6.05-3.52 10.18-10.88 10.18s-11-4.23-11-10.18V88.17zm57.03 20.76l1.81 2.12-3.62 3-1.92-2.32a13.26 13.26 0 0 1-5.74 1.21c-7.36 0-12.7-5.24-12.7-12.59s5.34-12.6 12.7-12.6 12.79 5.24 12.79 12.6a14.46 14.46 0 0 1-3.32 8.58zm-7.15-1l-2.73-3.22 3.63-2.92 2.72 3.22a8.77 8.77 0 0 0 1.31-4.53c0-4.54-2.92-8-7.45-8s-7.36 3.42-7.36 8 2.92 8 7.36 8c1-.25 1.91-.36 2.52-.56zm13.9-19.76h5.24v14.51c0 3.43 1.81 5.75 5.64 5.75 3.63 0 5.65-2.32 5.65-5.75V88.17h5.24v14.61c0 6.05-3.53 10.18-10.89 10.18s-11-4.23-11-10.18V88.17zm26.7 0h17.23v4.44h-12v5.34h11.8v4.43h-11.79v5.64h12v4.44h-17.24zm7.06-2.11l4.83-5.24h4.34l-5.85 5.24zm14.2 2.11h12.8c4.54 0 7.06 3 7.06 6.15a5.54 5.54 0 0 1-4.24 5.64 6 6 0 0 1 4.74 6c0 3.63-2.52 6.55-7 6.55h-13.2V88.29h-.11zm11.69 9.78a2.76 2.76 0 0 0 2.93-2.72 2.63 2.63 0 0 0-2.93-2.62h-6.55v5.34zm.2 10.07a2.86 2.86 0 0 0 3.13-2.92 2.81 2.81 0 0 0-3.13-2.92h-6.65v5.74h6.65zm12.3-19.85H626v4.44h-12v5.34h11.79v4.43H614v5.64h12v4.44h-17.28zm20.15 12.12c0-7.46 5.64-12.6 12.8-12.6a11.28 11.28 0 0 1 10.38 6.05l-4.44 2.21a6.72 6.72 0 0 0-5.84-3.52c-4.23 0-7.46 3.42-7.46 8s3.23 8 7.46 8a6.61 6.61 0 0 0 5.84-3.53l4.44 2.12a11.35 11.35 0 0 1-10.38 6 12.42 12.42 0 0 1-12.8-12.73z"/><use xlink:href="#B"/></g><defs ><path id="B" d="M529.21 14.29c7.36 0 12.8 5.24 12.8 12.6s-5.34 12.59-12.8 12.59-12.69-5.19-12.69-12.57 5.24-12.62 12.69-12.62zm0 4.64c-4.43 0-7.35 3.42-7.35 8s2.92 8 7.35 8 7.46-3.53 7.46-8-3.02-7.98-7.46-7.98z"/></defs></svg>