<svg xmlns="http://www.w3.org/2000/svg" viewBox="0 0 86.556 33.73" xmlns:v="https://vecta.io/nano"><path d="M.306 10.39v10.54h2.22V14.1l4.6 6.83h2.08V10.39h-2.22v6.68l-4.61-6.68zm15.73-.29a5.23 5.23 0 0 0-5.19 5.49 5.27 5.27 0 1 0 10.54 0 5.36 5.36 0 0 0-5.35-5.49zm0 2.37c1.78 0 2.82 1.34 2.82 3.27s-1 3.11-2.82 3.11a2.81 2.81 0 0 1-2.82-3.11c0-2.08 1.04-3.27 2.82-3.27zm5.49-2.08l4.16 10.54h2.08l4.31-10.54h-2.68l-2.67 7.42-2.67-7.42zm15.89-.29a5.24 5.24 0 0 0-5.2 5.49 5.24 5.24 0 0 0 5.2 5.49 5.18 5.18 0 0 0 5.34-5.49 5.26 5.26 0 0 0-5.34-5.49zm0 2.37c1.78 0 2.82 1.34 2.82 3.27s-1 3.11-2.82 3.11a2.81 2.81 0 0 1-2.82-3.11c0-2.08 1.19-3.27 2.82-3.27zM6.986 27.76a3.12 3.12 0 0 0-2.82-1.93 3.33 3.33 0 0 0-3.27 3.42 3.24 3.24 0 0 0 3.27 3.41 3 3 0 0 0 2.82-1.78l.89.44a4 4 0 0 1-3.71 2.23 4.22 4.22 0 0 1-4.16-4.45 4.42 4.42 0 0 1 4.16-4.46 3.86 3.86 0 0 1 3.71 2.53zm7.12 4.9v.89h-4.6v-8.46h.85v7.57zm1.64 1.04v-8.46h.89v8.46zm11.28-8.46v8.46h-1v-6.09l-2.52 6.09h-.9l-2.52-6.09v6.09h-.93v-8.46h.89l3.12 7.42 3-7.42zm7.12 6.11h-4l-.89 2.38h-1l3.41-8.46h1.19l3.41 8.46h-1zm-.29-.89l-1.64-4.15-1.63 4.15zm8.61-4.33h-2.82v7.57h-.89v-7.57h-2.82v-.89h6.68v.89z" fill="#fff"/><path d="M82.696 33.7V18.26h3.86L66.806 0l-19.59 18.26h3.71V33.7h11.73v-9.35h8.46v9.35z" fill="#f4b812"/></svg>