<svg xmlns="http://www.w3.org/2000/svg" xmlns:xlink="http://www.w3.org/1999/xlink" viewBox="0 0 777.7 143.1" xmlns:v="https://vecta.io/nano"><g fill="#fff"><path d="M178.6 38c14.4-11.5 35.4-9.1 46.9 5.4.5.6 1 1.3 1.5 2l25.3-17.2c-11.9-17.5-31.7-28-52.9-28-7.1 0-14.1 1.2-20.8 3.5V38h0zm48.2 44.9c-10.3 15.3-31.1 19.3-46.3 8.9-9.2-6.2-14.7-16.6-14.7-27.7V9.6c-30.1 18.6-39.4 58-20.8 88.1s58 39.4 88.1 20.8c7.5-4.7 14-10.8 19.1-18.1l-25.4-17.5zM300.4 38c14.4-11.5 35.4-9.1 46.8 5.3 11.5 14.4 9.1 35.4-5.3 46.8-.2.1-.4.3-.6.4l13.7 27.7C384.9 99.5 393.9 60 375.1 30 359.3 4.9 328.4-6.1 300.3 3.5V38h.1zm18.5 105.1h34.3L330 96.3c-2.9.8-5.9 1.2-8.9 1.2-18.4 0-33.3-14.9-33.4-33.3v-.1V9.6c-30.1 18.5-39.6 57.9-21.1 88 9.8 16 26.1 26.9 44.6 29.8l7.7 15.7zM61.8 1.9l-7.9 15.8 54 108.7h34.3L80.3 1.9zM34.3 126.4l6.2-12.6h45.9L74 88.7H52.9l10.5-21.1L46.3 33l-42 84.7-4.3 8.7zM464.6 35h-10.9l-1.6 4.2h-5.6l9.4-24.3h6.5l9.4 24.3H466l-1.4-4.2zm-9.5-4.7h8.1l-4-11.1-4.1 11.1z"/><use xlink:href="#B"/><use xlink:href="#B" x="22"/><use xlink:href="#C"/><path d="M544.4 26.9c0-7.5 5.6-12.6 12.8-12.6 4.3-.1 8.4 2.2 10.4 6.1l-4.4 2.2c-1.2-2.2-3.4-3.5-5.8-3.5-4.2 0-7.5 3.4-7.5 8s3.2 8 7.5 8a6.54 6.54 0 0 0 5.8-3.5l4.4 2.1c-2 3.8-6.1 6.1-10.4 6-7-.2-12.8-5.3-12.8-12.8zm26.3-12.3h5.3v24.3h-5.2l-.1-24.3zM596.2 35h-10.9l-1.6 4.2H578l9.4-24.3h6.5l9.4 24.3h-5.7l-1.4-4.2zm-9.4-4.7h8.1l-4-11.1-4.1 11.1zm22.2-11h-7v-4.6h19.4v4.6h-7V39h-5.2V19.3h-.2zm15.7-4.7h5.3v24.3h-5.2l-.1-24.3zm21.4-.3c7.4 0 12.8 5.2 12.8 12.6s-5.3 12.6-12.8 12.6-12.7-5.2-12.7-12.6c-.2-6.8 5.2-12.4 12-12.6h.7zm0 4.6c-4.4 0-7.3 3.4-7.3 8s2.9 8 7.3 8 7.5-3.5 7.5-8-2.9-7.9-7.5-8h0zm21.8 3.9v16.3h-5.2V14.6h5.4l11.3 15.8V14.6h5.2v24.3h-4.9l-11.8-16.1zm30.7-8.2h9.6c7.6 0 12.9 4.8 12.9 12.2S715.7 39 708.2 39h-9.6V14.6h0zm9.7 20c4 .2 7.4-2.9 7.6-6.9V27c0-4.3-2.6-7.6-7.6-7.6h-4.4v15.2c-.2 0 4.4 0 4.4 0h0zm16.5-20H742V19h-12v5.3h11.8v4.4H730v5.7h12v4.4h-17.2V14.6zM446.5 51.4h5.2v19.8h10.4v4.5h-15.6V51.4zm34.6 20.2h-10.9l-1.6 4.2h-5.8l9.4-24.3h6.5l9.4 24.3h-5.6l-1.4-4.2zm-9.5-4.5h8.1l-4-11.1-4.1 11.1zm26-3.5c0-7.5 5.6-12.6 12.8-12.6 4.3-.2 8.4 2.2 10.4 6l-4.4 2.3c-1.2-2.1-3.4-3.5-5.8-3.5-4.2 0-7.5 3.4-7.5 8s3.2 8 7.5 8a6.54 6.54 0 0 0 5.8-3.5l4.4 2c-2 3.8-6.1 6.1-10.4 6-6.9.2-12.6-5.2-12.8-12v-.7zM535.4 51c7.4 0 12.8 5.2 12.8 12.6s-5.3 12.6-12.8 12.6-12.7-5.2-12.7-12.6A12.21 12.21 0 0 1 534.6 51h.8zm0 4.6c-4.4 0-7.3 3.4-7.3 8s2.9 8 7.3 8 7.5-3.5 7.5-8c-.1-4.6-2.9-8-7.5-8zm21.7 3.7v16.3h-5.2V51.4h5.3l11.3 15.8V51.4h5.2v24.3h-4.9l-11.7-16.4zm22.6 9.1c2 2.1 4.8 3.3 7.8 3.2 2.9 0 4.2-1.3 4.2-2.7 0-1.8-2.1-2.5-4.9-3.1-3.9-.9-9.2-1.9-9.2-7.4 0-4 3.5-7.4 9.3-7.4 3.5-.1 6.9 1.1 9.6 3.4l-2.9 3.9c-1.9-1.7-4.4-2.7-7-2.6-2.3 0-3.5 1-3.5 2.5 0 1.7 2.1 2.1 4.8 2.9 4 .9 9.2 2.1 9.2 7.6 0 4.4-3.1 7.8-9.8 7.8-3.9.2-7.6-1.3-10.4-3.9l2.8-4.2zm26-12.5h-7.1v-4.5h19.5v4.5H611v19.8h-5.2l-.1-19.8h0zm24.8 11.2h-3.8v8.8h-5.2V51.6h11.4c5.1 0 8.3 3.2 8.3 7.9 0 4.3-2.7 6.7-5.3 7.2l5.4 9.3h-6l-4.8-8.9zm1.5-11.3h-5.4v6.7h5.4c1.8.2 3.5-1.2 3.6-3v-.4c0-2-1.5-3.3-3.6-3.3zm13-4.4h5.2v14.5c0 3.4 1.8 5.8 5.7 5.8 3.6 0 5.6-2.3 5.6-5.8V51.4h5.2V66c0 6-3.5 10.2-10.9 10.2s-11-4.2-11-10.2V51.4h.2zm25.3 12.2c0-7.5 5.6-12.6 12.8-12.6 4.3-.2 8.4 2.2 10.4 6l-4.5 2.3c-1.2-2.1-3.4-3.5-5.8-3.5-4.2 0-7.5 3.4-7.5 8s3.2 8 7.5 8c2.5 0 4.7-1.4 5.8-3.7l4.5 2.2c-2 3.8-6.1 6.1-10.4 6-6.9.2-12.6-5.2-12.8-12v-.7zm31.9-7.7h-7.1v-4.5h19.3v4.5h-7v19.8h-5.2V55.9zm15.8-4.5h5.2v24.3H718V51.4zm21.5-.4c7.4 0 12.8 5.2 12.8 12.6s-5.3 12.6-12.8 12.6-12.7-5.2-12.7-12.6S732.2 51 739.5 51zm0 4.6c-4.4 0-7.4 3.4-7.4 8s2.9 8 7.4 8 7.5-3.5 7.5-8c-.2-4.6-3.1-8-7.5-8zm21.6 3.7v16.3h-5.2V51.4h5.3l11.3 15.8V51.4h5.2v24.3h-4.9l-11.7-16.4zM446.5 88.2h9.6c7.6 0 12.9 4.8 12.9 12.2s-5.3 12.2-12.9 12.2h-9.6V88.2zm9.6 19.7c4 .2 7.4-2.9 7.6-6.9v-.6c0-4.3-2.6-7.6-7.6-7.6h-4.3V108l4.3-.1h0zm16.7-19.7h5.2v14.5c0 3.4 1.8 5.8 5.6 5.8 3.6 0 5.6-2.3 5.6-5.8V88.2h5.2v14.6c0 6.1-3.5 10.2-10.9 10.2s-11-4.2-11-10.2V88.2h.3zm57 20.7l1.8 2.1-3.6 3-1.9-2.3c-1.8.8-3.8 1.2-5.7 1.2-7.4 0-12.7-5.2-12.7-12.6s5.3-12.6 12.7-12.6 12.8 5.2 12.8 12.6c-.2 3.2-1.4 6.2-3.4 8.6zm-7.1-1l-2.7-3.2 3.6-2.9 2.7 3.2c.8-1.4 1.3-2.9 1.3-4.5 0-4.5-2.9-8-7.5-8s-7.4 3.4-7.4 8 2.9 8 7.4 8c1.1-.3 2-.4 2.6-.6h0zm13.9-19.7h5.2v14.5c0 3.4 1.8 5.8 5.6 5.8 3.6 0 5.7-2.3 5.7-5.8V88.2h5.2v14.6c0 6.1-3.5 10.2-10.9 10.2s-11-4.2-11-10.2V88.2h.2zm26.7 0h17.2v4.4h-12V98h11.8v4.4h-11.8v5.6h12v4.4h-17.2V88.2zm7-2.1l4.8-5.2h4.3l-5.8 5.2h-3.3zm14.2 2.1h12.8c4.5 0 7.1 3 7.1 6.2.1 2.7-1.7 5-4.2 5.6 2.8.6 4.8 3.1 4.7 6 0 3.6-2.5 6.6-7 6.6h-13.2V88.3h-.1l-.1-.1zm11.7 9.7c1.5.1 2.8-1.1 2.9-2.6v-.1c0-1.5-1.2-2.6-2.6-2.6h-.3-6.5v5.3h6.5zm.2 10.1c1.6.1 3-1 3.1-2.6v-.3c.1-1.6-1.1-2.9-2.7-2.9h-.5-6.7v5.7l6.8.1h0zm12.3-19.8H626v4.4h-12V98h11.8v4.4H614v5.6h12v4.4h-17.3V88.2zm20.2 12.1c0-7.5 5.6-12.6 12.8-12.6 4.3-.1 8.4 2.2 10.4 6.1l-4.4 2.2c-1.2-2.1-3.4-3.5-5.8-3.5-4.2 0-7.5 3.4-7.5 8s3.2 8 7.5 8a6.54 6.54 0 0 0 5.8-3.5l4.4 2.1c-2 3.8-6.1 6.1-10.4 6-6.9.2-12.6-5.2-12.8-12v-.8z"/><use xlink:href="#C"/></g><defs ><path id="B" d="M475 31.6c2 2.1 4.8 3.3 7.8 3.2 2.9 0 4.2-1.3 4.2-2.7 0-1.8-2.1-2.5-4.9-3.1-3.9-.9-9.2-1.9-9.2-7.5 0-4 3.5-7.4 9.3-7.4 3.5-.1 6.9 1.1 9.6 3.4l-2.9 3.8c-1.9-1.7-4.4-2.7-7-2.6-2.4 0-3.5 1-3.5 2.5 0 1.7 2.1 2.1 4.8 2.7 4 .9 9.2 2.1 9.2 7.5 0 4.4-3.1 7.9-9.8 7.9-3.9.2-7.6-1.3-10.4-3.9l2.8-3.8z"/><path id="C" d="M529.2 14.3c7.4 0 12.8 5.2 12.8 12.6s-5.3 12.6-12.8 12.6-12.7-5.2-12.7-12.6 5.3-12.6 12.7-12.6zm0 4.6c-4.4 0-7.3 3.4-7.3 8s2.9 8 7.3 8 7.5-3.5 7.5-8-3-7.9-7.5-8h0z"/></defs></svg>