<svg id="Calque_1" data-name="Calque 1" xmlns="http://www.w3.org/2000/svg" viewBox="0 0 120.2 49"><defs><style>.cls-1{fill:#ffffff;}.cls-2{fill:#f4b812;}</style></defs><polygon class="cls-1" points="39.63 24.72 35.02 18.04 32.95 18.04 32.95 28.58 35.17 28.58 35.17 21.75 39.77 28.58 41.85 28.58 41.85 18.04 39.63 18.04 39.63 24.72"/><path class="cls-1" d="M48.68,17.75a5.23,5.23,0,0,0-5.19,5.49,5.27,5.27,0,1,0,10.54,0A5.36,5.36,0,0,0,48.68,17.75Zm0,2.37c1.78,0,2.82,1.34,2.82,3.27s-1,3.11-2.82,3.11a2.81,2.81,0,0,1-2.82-3.11C45.86,21.31,46.9,20.12,48.68,20.12Z"/><polygon class="cls-1" points="59.37 25.46 56.7 18.04 54.17 18.04 58.33 28.58 60.41 28.58 64.72 18.04 62.04 18.04 59.37 25.46"/><path class="cls-1" d="M70.06,17.75a5.24,5.24,0,0,0-5.2,5.49,5.24,5.24,0,0,0,5.2,5.49,5.18,5.18,0,0,0,5.34-5.49A5.26,5.26,0,0,0,70.06,17.75Zm0,2.37c1.78,0,2.82,1.34,2.82,3.27s-1,3.11-2.82,3.11a2.81,2.81,0,0,1-2.82-3.11C67.24,21.31,68.43,20.12,70.06,20.12Z"/><path class="cls-1" d="M39.63,35.41a3.12,3.12,0,0,0-2.82-1.93,3.33,3.33,0,0,0-3.27,3.42,3.24,3.24,0,0,0,3.27,3.41,3,3,0,0,0,2.82-1.78l.89.44a4,4,0,0,1-3.71,2.23,4.22,4.22,0,0,1-4.16-4.45,4.42,4.42,0,0,1,4.16-4.46,3.86,3.86,0,0,1,3.71,2.53Z"/><path class="cls-1" d="M46.75,40.31v.89h-4.6V32.74H43v7.57Z"/><path class="cls-1" d="M48.39,41.35V32.89h.89v8.46Z"/><path class="cls-1" d="M59.67,32.89v8.46h-1V35.26l-2.52,6.09h-.9l-2.52-6.09v6.09H51.8V32.89h.89l3.12,7.42,3-7.42Z"/><path class="cls-1" d="M66.79,39h-4l-.89,2.38h-1l3.41-8.46h1.19l3.41,8.46h-1Zm-.29-.89-1.64-4.15-1.63,4.15Z"/><path class="cls-1" d="M75.11,33.78H72.29v7.57H71.4V33.78H68.58v-.89h6.68v.89Z"/><polygon class="cls-2" points="103.76 32 103.76 41.35 115.34 41.35 115.34 25.91 119.2 25.91 99.45 7.65 79.86 25.91 83.57 25.91 83.57 41.35 95.3 41.35 95.3 32 103.76 32"/></svg>